<?xml version="1.0" encoding="iso-8859-1"?>
<!-- Uploaded to: SVG Repo, www.svgrepo.com, Generator: SVG Repo Mixer Tools -->
<svg version="1.1" id="Layer_1" xmlns="http://www.w3.org/2000/svg" xmlns:xlink="http://www.w3.org/1999/xlink" 
	 viewBox="0 0 290.513 290.513" xml:space="preserve">
<g>
	<g>
		<ellipse style="fill:#F9BA48;" cx="145.256" cy="151.301" rx="126.513" ry="62.273"/>
		<path style="fill:#333333;" d="M168.684,103.086c-58.679,0-93.713,17.515-93.713,46.857c0,18.344,27.214,28.114,46.857,28.114
			c46.327,0,46.857-22.472,46.857-23.428l-9.367-0.141c-0.009,0.141-1.354,14.198-37.49,14.198
			c-16.976,0-37.485-8.359-37.485-18.743c0-23.124,32.317-37.485,84.342-37.485c68.312,0,112.456,20.233,112.456,51.542
			c0,32.818-50.989,70.252-145.49,74.975l0.469,9.357c101.36-5.065,154.393-46.262,154.393-84.333
			C290.511,126.996,242.689,103.086,168.684,103.086z"/>
		<path style="fill:#333333;" d="M215.541,154.628c0-18.344-27.214-28.114-46.857-28.114c-46.327,0-46.857,22.472-46.857,23.428
			l9.367,0.141c0.009-0.141,1.354-14.198,37.49-14.198c16.976,0,37.485,8.359,37.485,18.743c0,23.124-32.317,37.485-84.342,37.485
			c-68.312,0-112.456-20.233-112.456-51.542c0-32.818,50.989-70.252,145.49-74.975l-0.469-9.357C53.032,61.303,0,102.5,0,140.571
			c0,37.003,47.822,60.914,121.827,60.914C180.506,201.485,215.541,183.97,215.541,154.628z"/>
		<path style="fill:#333333;" d="M51.542,107.771c0,7.75-6.307,14.057-14.057,14.057v9.371c7.75,0,14.057,6.307,14.057,14.057h9.371
			c0-7.75,6.307-14.057,14.057-14.057v-9.371c-7.75,0-14.057-6.307-14.057-14.057H51.542z M56.228,131.214
			c-1.335-1.776-2.919-3.364-4.7-4.7c1.781-1.335,3.364-2.924,4.7-4.7c1.335,1.776,2.919,3.364,4.7,4.7
			C59.147,127.849,57.563,129.438,56.228,131.214z"/>
		<path style="fill:#333333;" d="M238.969,187.428h9.371c0-10.337,8.406-18.743,18.743-18.743v-9.371
			c-10.337,0-18.743-8.406-18.743-18.743h-9.371c0,10.337-8.406,18.743-18.743,18.743v9.371
			C230.563,168.685,238.969,177.091,238.969,187.428z M243.655,156.095c2.08,3.13,4.775,5.82,7.905,7.905
			c-3.13,2.08-5.82,4.775-7.905,7.905c-2.08-3.13-4.775-5.82-7.905-7.905C238.88,161.919,241.574,159.225,243.655,156.095z"/>
		<path style="fill:#333333;" d="M103.085,206.17h-9.371c0,10.337-8.406,18.743-18.743,18.743v9.371
			c10.337,0,18.743,8.406,18.743,18.743h9.371c0-10.337,8.406-18.743,18.743-18.743v-9.371
			C111.491,224.913,103.085,216.507,103.085,206.17z M98.399,237.503c-2.08-3.13-4.775-5.82-7.905-7.905
			c3.13-2.08,5.82-4.775,7.905-7.905c2.08,3.13,4.775,5.82,7.905,7.905C103.174,231.679,100.479,234.373,98.399,237.503z"/>
		<path style="fill:#333333;" d="M182.741,84.343h9.371c0-10.337,8.406-18.743,18.743-18.743v-9.371
			c-10.337,0-18.743-8.406-18.743-18.743h-9.371c0,10.337-8.406,18.743-18.743,18.743V65.6
			C174.335,65.6,182.741,74.006,182.741,84.343z M187.427,53.01c2.08,3.13,4.775,5.82,7.905,7.905
			c-3.13,2.08-5.82,4.775-7.905,7.905c-2.08-3.13-4.775-5.82-7.905-7.905C182.652,58.834,185.346,56.14,187.427,53.01z"/>
		<rect x="98.399" y="135.885" style="fill:#333333;" width="9.371" height="9.371"/>
		<rect x="107.77" y="149.942" style="fill:#333333;" width="9.371" height="9.371"/>
		<rect x="168.684" y="168.685" style="fill:#333333;" width="9.371" height="9.371"/>
		<rect x="182.741" y="145.257" style="fill:#333333;" width="9.371" height="9.371"/>
		<rect x="215.541" y="187.428" style="fill:#333333;" width="9.371" height="9.371"/>
		<rect x="154.627" y="215.542" style="fill:#333333;" width="9.371" height="9.371"/>
	</g>
</g>
</svg>