<?xml version="1.0" encoding="utf-8"?><!-- Uploaded to: SVG Repo, www.svgrepo.com, Generator: SVG Repo Mixer Tools -->
<svg width="800px" height="800px" viewBox="0 0 400 400" fill="none" xmlns="http://www.w3.org/2000/svg">
<path d="M87 354.009C95.9827 332.493 116.732 298.757 154.015 283.273C166.397 278.131 180.602 275.002 196.805 275.002C212.206 275.002 226.185 277.972 238.683 282.846C283.164 300.193 308.896 341.657 313.275 359.171" stroke="#000000" stroke-opacity="0.9" stroke-width="20" stroke-linecap="round" stroke-linejoin="round"/>
<path opacity="0.503384" d="M205.288 62.9543C212.202 59.9093 208.776 61.4746 220.29 55.7274C226.629 52.563 234.549 48.8226 241.858 50.9087C251.804 53.7482 266.926 72.7469 254.986 81.7461C228.359 101.813 185.068 91.3966 166.842 125.111C163.694 130.934 162.288 138.388 164.967 144.866C172.583 163.283 217.291 160.4 232.481 158.839C234.94 158.587 247.739 158.611 247.483 152.575C246.45 128.127 194.535 94.5506 178.095 78.3734C176.761 77.0613 159.497 60.9096 165.904 54.7636C168.747 52.0366 182.173 56.9112 182.783 57.1726C203.846 66.1919 260.489 99.5431 246.546 129.448C230.982 162.828 150.424 148.643 155.121 194.977C157.125 214.746 188.514 220.988 202.474 224.851C227.763 231.848 279.673 249.057 287.336 208.469C292.635 180.4 279.69 128.835 245.139 127.52C211.51 126.24 181.84 165.962 139.649 154.984C99.8754 144.636 95.9881 83.8881 116.207 57.1726C140.198 25.4722 173.505 47.8995 201.537 61.0276C220.933 70.111 245.902 80.7106 244.671 107.283C243.257 137.793 227.583 163.029 210.445 186.786C201.427 199.286 184.53 215.921 183.252 232.56C181.706 252.681 210.71 251.665 222.635 248.942C236.145 245.857 251.104 236.693 261.08 227.26C281.515 207.939 300.416 174.584 295.775 144.866C290.129 108.713 235.577 74.4102 203.881 76.4459C191.807 77.2213 186.878 83.1631 181.376 93.3102C168.488 117.084 163.858 144.429 163.56 171.367C163.395 186.262 169.519 202.137 168.249 216.178C167.232 227.403 159.286 230.252 149.964 225.332C114.863 206.809 130.326 131.813 136.367 101.501C137.876 93.9325 137.169 82.1456 144.337 79.8187C152.011 77.3283 165.805 103.215 165.904 103.428C179.128 131.773 176.716 212.773 128.865 202.686C91.937 194.901 123.901 76.3487 167.311 83.6736C206.507 90.2866 233.069 130.476 235.294 168.958C235.779 177.342 234.284 197.049 227.792 205.095C219.216 215.724 186.66 217.283 178.095 206.059C173.823 200.463 170.385 193.79 169.186 186.786C164.308 158.273 190.612 79.293 217.946 66.3271C254.676 48.906 276.061 100.143 273.739 128.484C268.668 190.369 182.871 210.355 142.931 169.921C125.004 151.773 122.711 102.421 131.209 79.3371C135.751 67.0031 144.472 61.0207 156.058 56.6904C163.851 53.7785 185.334 49.3172 194.504 51.3909C233.016 60.0976 278.029 102.425 292.962 140.048C321.911 212.986 180.247 267.472 144.807 208.469C136.431 194.525 136.786 171.518 136.367 156.43C136.182 149.784 134.314 129.209 140.118 121.256C151.749 105.319 190.212 141.009 198.255 145.83C204.837 149.775 211.647 153.498 218.884 155.948C254.106 167.872 257.479 150.2 284.523 143.421C289.07 142.281 300.474 141.36 305.152 141.493C307.92 141.572 315.749 143.003 313.122 143.902C286.367 153.068 243.793 109.979 220.29 102.465C213.2 100.198 205.677 99.3493 198.255 99.092C184.171 98.6042 172.93 101.722 160.278 107.765C138.552 118.143 132.925 137.196 108.705 128.484" stroke="#000000" stroke-opacity="0.9" stroke-width="6" stroke-linecap="round" stroke-linejoin="round"/>
</svg>