<?xml version="1.0" encoding="iso-8859-1"?>
<!-- Uploaded to: SVG Repo, www.svgrepo.com, Generator: SVG Repo Mixer Tools -->
<svg version="1.1" id="Layer_1" xmlns="http://www.w3.org/2000/svg" xmlns:xlink="http://www.w3.org/1999/xlink" 
	 viewBox="0 0 512 512" xml:space="preserve">
<g transform="translate(0 1)">
	<g>
		<path style="fill:#FFE100;" d="M366.933,144.067v51.2c0,9.387-7.68,17.067-17.067,17.067h25.6c9.387,0,17.067-7.68,17.067-17.067
			v-51.2H366.933z"/>
		<path style="fill:#FFE100;" d="M469.333,7.533h-25.6c14.507,0,25.6,11.093,25.6,25.6v85.333c0,14.507-11.093,25.6-25.6,25.6h25.6
			c14.507,0,25.6-11.093,25.6-25.6V33.133C494.933,18.627,483.84,7.533,469.333,7.533"/>
		<path style="fill:#FFE100;" d="M469.333,459.8h-25.6c14.507,0,25.6,11.093,25.6,25.6s-11.093,25.6-25.6,25.6h25.6
			c14.507,0,25.6-11.093,25.6-25.6S483.84,459.8,469.333,459.8"/>
		<path style="fill:#FFE100;" d="M324.267,237.933c-5.12,0-8.533-3.413-8.533-8.533v-8.533H281.6v8.533
			c0,5.12-3.413,8.533-8.533,8.533s-8.533-3.413-8.533-8.533v-17.067c0-5.12,3.413-8.533,8.533-8.533h51.2
			c5.12,0,8.533,3.413,8.533,8.533V229.4C332.8,234.52,329.387,237.933,324.267,237.933z"/>
		<path style="fill:#FFE100;" d="M273.067,280.6c-5.12,0-8.533-3.413-8.533-8.533v-8.533c0-5.12,3.413-8.533,8.533-8.533
			s8.533,3.413,8.533,8.533v8.533C281.6,277.187,278.187,280.6,273.067,280.6z"/>
		<path style="fill:#FFE100;" d="M273.067,323.267c-5.12,0-8.533-3.413-8.533-8.533V306.2c0-5.12,3.413-8.533,8.533-8.533
			s8.533,3.413,8.533,8.533v8.533C281.6,319.853,278.187,323.267,273.067,323.267z"/>
		<path style="fill:#FFE100;" d="M324.267,280.6c-5.12,0-8.533-3.413-8.533-8.533v-8.533c0-5.12,3.413-8.533,8.533-8.533
			c5.12,0,8.533,3.413,8.533,8.533v8.533C332.8,277.187,329.387,280.6,324.267,280.6z"/>
		<path style="fill:#FFE100;" d="M324.267,323.267c-5.12,0-8.533-3.413-8.533-8.533V306.2c0-5.12,3.413-8.533,8.533-8.533
			c5.12,0,8.533,3.413,8.533,8.533v8.533C332.8,319.853,329.387,323.267,324.267,323.267z"/>
	</g>
	<path style="fill:#63D3FD;" d="M389.12,425.667c-1.707,0-4.267,0-5.973,0c-3.413,0-8.533,0.853-11.947-1.707
		c-1.707-1.707-3.413-3.413-4.267-5.973c0-2.56,0-5.12,1.707-6.827c13.653-15.36,21.333-34.133,23.04-54.613
		c0-2.56,1.707-5.12,4.267-6.827c0.853-0.853,2.56-0.853,4.267-0.853c19.627,0,34.133,6.827,40.107,18.773
		c3.413,7.68,5.12,20.48-7.68,37.547C419.84,423.96,405.333,425.667,389.12,425.667z M408.747,365.933
		c-2.56,15.36-7.68,29.867-16.213,42.667c11.947,0,19.627-2.56,28.16-13.653c3.413-5.12,9.387-13.653,5.973-19.627
		C424.107,370.2,417.28,367.64,408.747,365.933z"/>
	<path style="fill:#FDCC00;" d="M460.8,203.8h-42.667c-9.387,0-17.067-7.68-17.067-17.067c0-9.387,7.68-17.067,17.067-17.067H460.8
		c9.387,0,17.067,7.68,17.067,17.067C477.867,196.12,470.187,203.8,460.8,203.8"/>
	<path style="fill:#FFA800;" d="M486.4,169.667h-25.6c9.387,0,17.067,7.68,17.067,17.067c0,9.387-7.68,17.067-17.067,17.067h25.6
		c9.387,0,17.067-7.68,17.067-17.067C503.467,177.347,495.787,169.667,486.4,169.667"/>
	<path style="fill:#FDCC00;" d="M324.267,212.333H230.4c-9.387,0-17.067-7.68-17.067-17.067v-51.2h128v51.2
		C341.333,204.653,333.653,212.333,324.267,212.333"/>
	<path style="fill:#FFA800;" d="M341.333,144.067v51.2c0,9.387-7.68,17.067-17.067,17.067h25.6c9.387,0,17.067-7.68,17.067-17.067
		v-51.2H341.333z"/>
	<path style="fill:#63D3FD;" d="M187.733,348.867c0,56.32,46.08,102.4,102.4,102.4s76.8-46.08,76.8-102.4H187.733z"/>
	<path style="fill:#3DB9F9;" d="M366.933,348.867c0,56.32-20.48,102.4-76.8,102.4c56.32,0,102.4-46.08,102.4-102.4H366.933z"/>
	<path style="fill:#FFE100;" d="M145.067,425.667v-256c0-14.507,11.093-25.6,25.6-25.6h247.467c14.507,0,25.6-11.093,25.6-25.6
		V33.133c0-14.507-11.093-25.6-25.6-25.6h-358.4c-14.507,0-25.6,11.093-25.6,25.6V255v221.867c0,14.507,11.093,25.6,25.6,25.6h358.4
		c14.507,0,25.6-11.093,25.6-25.6c0-14.507-11.093-25.6-25.6-25.6h-256C147.627,451.267,145.067,440.173,145.067,425.667"/>
	<path style="fill:#FFFFFF;" d="M34.133,476.867V255V33.133c0-14.507,11.093-25.6,25.6-25.6h-25.6c-14.507,0-25.6,11.093-25.6,25.6
		V255v221.867c0,14.507,11.093,25.6,25.6,25.6h25.6C45.227,502.467,34.133,491.373,34.133,476.867"/>
	<g>
		<path style="fill:#FFA800;" d="M443.733,7.533h-25.6c14.507,0,25.6,11.093,25.6,25.6v85.333c0,14.507-11.093,25.6-25.6,25.6h25.6
			c14.507,0,25.6-11.093,25.6-25.6V33.133C469.333,18.627,458.24,7.533,443.733,7.533"/>
		<path style="fill:#FFA800;" d="M443.733,451.267h-25.6c14.507,0,25.6,11.093,25.6,25.6c0,14.507-11.093,25.6-25.6,25.6h25.6
			c14.507,0,25.6-11.093,25.6-25.6C469.333,462.36,458.24,451.267,443.733,451.267"/>
		<path style="fill:#FFA800;" d="M178.347,41.667c-2.56,0-5.12,0-7.68,0.853c9.387,3.413,16.213,17.067,16.213,33.28
			s-6.827,29.867-16.213,33.28c2.56,0.853,5.12,0.853,7.68,0.853c18.773,0,34.133-15.36,34.133-34.133S197.12,41.667,178.347,41.667
			"/>
	</g>
	<path style="fill:#FDCC00;" d="M187.733,75.8c0-18.773-9.387-34.133-21.333-34.133s-21.333,15.36-21.333,34.133
		s9.387,34.133,21.333,34.133S187.733,94.573,187.733,75.8"/>
	<path style="fill:#FFA800;" d="M75.947,41.667c-2.56,0-5.12,0-7.68,0.853C77.653,45.933,84.48,59.587,84.48,75.8
		s-6.827,29.867-16.213,33.28c2.56,0.853,5.12,0.853,7.68,0.853c18.773,0,34.133-15.36,34.133-34.133S94.72,41.667,75.947,41.667"/>
	<path style="fill:#FDCC00;" d="M85.333,75.8c0-18.773-9.387-34.133-21.333-34.133S42.667,57.027,42.667,75.8
		S52.053,109.933,64,109.933S85.333,94.573,85.333,75.8"/>
	<path d="M443.733,511h-409.6C15.36,511,0,495.64,0,476.867v-281.6c0-5.12,3.413-8.533,8.533-8.533s8.533,3.413,8.533,8.533v281.6
		c0,9.387,7.68,17.067,17.067,17.067h409.6c9.387,0,17.067-7.68,17.067-17.067s-7.68-17.067-17.067-17.067H170.667
		c-18.773,0-34.133-15.36-34.133-34.133v-256c0-18.773,15.36-34.133,34.133-34.133h273.067c9.387,0,17.067-7.68,17.067-17.067
		V33.133c0-9.387-7.68-17.067-17.067-17.067h-409.6c-9.387,0-17.067,7.68-17.067,17.067V127c0,5.12-3.413,8.533-8.533,8.533
		S0,132.12,0,127V33.133C0,14.36,15.36-1,34.133-1h409.6c18.773,0,34.133,15.36,34.133,34.133v85.333
		c0,18.773-15.36,34.133-34.133,34.133H170.667c-9.387,0-17.067,7.68-17.067,17.067v256c0,9.387,7.68,17.067,17.067,17.067h273.067
		c18.773,0,34.133,15.36,34.133,34.133S462.507,511,443.733,511z"/>
	<path d="M17.067,161.133c0-5.12-3.413-8.533-8.533-8.533S0,156.013,0,161.133c0,5.12,3.413,8.533,8.533,8.533
		S17.067,166.253,17.067,161.133"/>
	<path d="M349.867,220.867H230.4c-14.507,0-25.6-11.093-25.6-25.6v-59.733h170.667v59.733
		C375.467,209.773,364.373,220.867,349.867,220.867z M221.867,152.6v42.667c0,5.12,3.413,8.533,8.533,8.533h119.467
		c5.12,0,8.533-3.413,8.533-8.533V152.6H221.867z"/>
	<path d="M315.733,237.933c-5.12,0-8.533-3.413-8.533-8.533v-8.533h-34.133v8.533c0,5.12-3.413,8.533-8.533,8.533
		c-5.12,0-8.533-3.413-8.533-8.533v-17.067c0-5.12,3.413-8.533,8.533-8.533h51.2c5.12,0,8.533,3.413,8.533,8.533V229.4
		C324.267,234.52,320.853,237.933,315.733,237.933z"/>
	<rect x="366.933" y="178.2" width="34.133" height="17.067"/>
	<path d="M486.4,212.333h-68.267c-14.507,0-25.6-11.093-25.6-25.6c0-14.507,11.093-25.6,25.6-25.6H486.4
		c14.507,0,25.6,11.093,25.6,25.6C512,201.24,500.907,212.333,486.4,212.333z M418.133,178.2c-5.12,0-8.533,3.413-8.533,8.533
		c0,5.12,3.413,8.533,8.533,8.533H486.4c5.12,0,8.533-3.413,8.533-8.533c0-5.12-3.413-8.533-8.533-8.533H418.133z"/>
	<path d="M290.133,459.8c-61.44,0-110.933-49.493-110.933-110.933c0-5.12,3.413-8.533,8.533-8.533h204.8
		c5.12,0,8.533,3.413,8.533,8.533C401.067,410.307,351.573,459.8,290.133,459.8z M196.267,357.4
		c4.267,47.787,44.373,85.333,93.867,85.333S378.88,405.187,384,357.4H196.267z"/>
	<path d="M264.533,280.6c-5.12,0-8.533-3.413-8.533-8.533v-8.533c0-5.12,3.413-8.533,8.533-8.533c5.12,0,8.533,3.413,8.533,8.533
		v8.533C273.067,277.187,269.653,280.6,264.533,280.6z"/>
	<path d="M264.533,323.267c-5.12,0-8.533-3.413-8.533-8.533V306.2c0-5.12,3.413-8.533,8.533-8.533c5.12,0,8.533,3.413,8.533,8.533
		v8.533C273.067,319.853,269.653,323.267,264.533,323.267z"/>
	<path d="M315.733,280.6c-5.12,0-8.533-3.413-8.533-8.533v-8.533c0-5.12,3.413-8.533,8.533-8.533c5.12,0,8.533,3.413,8.533,8.533
		v8.533C324.267,277.187,320.853,280.6,315.733,280.6z"/>
	<path d="M315.733,323.267c-5.12,0-8.533-3.413-8.533-8.533V306.2c0-5.12,3.413-8.533,8.533-8.533c5.12,0,8.533,3.413,8.533,8.533
		v8.533C324.267,319.853,320.853,323.267,315.733,323.267z"/>
	<path d="M76.8,118.467c-23.893,0-42.667-18.773-42.667-42.667S52.907,33.133,76.8,33.133s42.667,18.773,42.667,42.667
		S100.693,118.467,76.8,118.467z M76.8,50.2c-14.507,0-25.6,11.093-25.6,25.6s11.093,25.6,25.6,25.6s25.6-11.093,25.6-25.6
		S91.307,50.2,76.8,50.2z"/>
	<path d="M179.2,118.467c-23.893,0-42.667-18.773-42.667-42.667s18.773-42.667,42.667-42.667s42.667,18.773,42.667,42.667
		S203.093,118.467,179.2,118.467z M179.2,50.2c-14.507,0-25.6,11.093-25.6,25.6s11.093,25.6,25.6,25.6
		c14.507,0,25.6-11.093,25.6-25.6S193.707,50.2,179.2,50.2z"/>
	<path d="M59.733,459.8h-51.2c-5.12,0-8.533-3.413-8.533-8.533s3.413-8.533,8.533-8.533h51.2c5.12,0,8.533,3.413,8.533,8.533
		S64.853,459.8,59.733,459.8z"/>
	<path d="M59.733,425.667h-51.2c-5.12,0-8.533-3.413-8.533-8.533s3.413-8.533,8.533-8.533h51.2c5.12,0,8.533,3.413,8.533,8.533
		S64.853,425.667,59.733,425.667z"/>
	<path d="M59.733,391.533h-51.2C3.413,391.533,0,388.12,0,383c0-5.12,3.413-8.533,8.533-8.533h51.2c5.12,0,8.533,3.413,8.533,8.533
		C68.267,388.12,64.853,391.533,59.733,391.533z"/>
	<path d="M59.733,357.4h-51.2c-5.12,0-8.533-3.413-8.533-8.533c0-5.12,3.413-8.533,8.533-8.533h51.2c5.12,0,8.533,3.413,8.533,8.533
		C68.267,353.987,64.853,357.4,59.733,357.4z"/>
	<path d="M380.587,425.667c-1.707,0-4.267,0-5.973,0c-3.413,0-8.533,0.853-11.947-1.707c-1.707-1.707-3.413-3.413-4.267-5.973
		c0-2.56,0-5.12,1.707-6.827c13.653-15.36,21.333-34.133,23.04-54.613c0-2.56,1.707-5.12,4.267-6.827
		c0.853-0.853,2.56-0.853,4.267-0.853c19.627,0,34.133,6.827,40.107,18.773c3.413,7.68,5.12,20.48-7.68,37.547
		C411.307,423.96,396.8,425.667,380.587,425.667z M399.36,365.933c-2.56,15.36-7.68,29.867-16.213,42.667
		c11.947,0,19.627-2.56,28.16-13.653c3.413-5.12,9.387-13.653,5.973-19.627C414.72,370.2,408.747,367.64,399.36,365.933z"/>
</g>
</svg>