<?xml version="1.0" encoding="iso-8859-1"?>
<!-- Uploaded to: SVG Repo, www.svgrepo.com, Generator: SVG Repo Mixer Tools -->
<svg height="800px" width="800px" version="1.1" id="Layer_1" xmlns="http://www.w3.org/2000/svg" xmlns:xlink="http://www.w3.org/1999/xlink" 
	 viewBox="0 0 511.999 511.999" xml:space="preserve">
<circle style="fill:#59D8FF;" cx="256.018" cy="256.018" r="247.918"/>
<g>
	<path style="fill:#00C3F0;" d="M478.376,365.474c-25.489,15.428-54.165,26.544-85.267,32.028
		c-29.469,5.197-58.639,4.954-86.483-0.001c0.377-1.824,0.846-3.626,1.024-5.496l0.981-10.333
		c13.452-4.785,23.052-17.111,24.087-31.744l1.514-21.453c1.26-17.873-7.073-35.355-21.747-45.629l-4.375-3.064
		c-8.67-6.07-18.843-9.277-29.422-9.277c-2.977,0-5.974,0.262-8.907,0.779l-0.307,0.053l-26.742-18.725
		c-11.557-8.092-25.122-12.369-39.228-12.369c-3.97,0-7.965,0.349-11.877,1.04l-34.034,6.001l1.688-0.298
		c7.057-1.245,13.272-5.386,17.139-11.419l51.197-79.891l5.307-0.935c12.447-2.196,22.624-11.02,26.559-23.028l1.625-4.964
		c4.149-12.666,0.609-26.007-8.304-34.862c5.854-5.79,8.72-14.216,7.226-22.693l-1.871-10.616
		c-1.181-6.699-4.974-12.655-10.546-16.556c-4.342-3.039-9.484-4.639-14.712-4.639c-1.483,0-2.973,0.128-4.454,0.39L167.32,48.554
		c-2.758,0.486-5.418,1.421-7.875,2.768l-15.584,8.544c-4.111-2.729-9.008-4.282-14.153-4.283c-1.479,0-2.976,0.128-4.483,0.393
		l-3.229,0.57c1.817-4.266,3.619-8.539,5.667-12.69c-8.956,5.421-17.415,11.492-25.538,17.938c-0.211,0.09-0.434,0.155-0.645,0.246
		c-1.175,0.937-2.284,1.944-3.438,2.902c-0.411,0.341-0.815,0.69-1.225,1.034c-1.158,0.975-2.249,2.016-3.373,3.026
		c-0.024-0.034-0.05-0.071-0.075-0.105C29.959,124.121-3.796,210.229,11.869,299.072C35.644,433.912,164.23,523.948,299.071,500.173
		c4.958-0.874,9.831-1.943,14.664-3.097c0.24-0.058,0.477-0.12,0.716-0.178c4.566-1.105,9.073-2.332,13.52-3.678
		c0.322-0.097,0.645-0.189,0.967-0.287c9.203-2.828,18.145-6.155,26.802-9.958c0.609-0.267,1.209-0.548,1.813-0.82
		c3.681-1.653,7.31-3.389,10.885-5.209c0.647-0.329,1.298-0.648,1.941-0.981c4.049-2.106,8.052-4.28,11.956-6.592
		c-0.005-0.007-0.011-0.015-0.016-0.022C424.037,444.624,457.267,408.263,478.376,365.474z"/>
	<path style="fill:#00C3F0;" d="M463.672,120.524l-1.618,0.611l-13.281,2.341c-1.967,0.346-3.953,0.519-5.937,0.519
		c-3.291,0-6.575-0.474-9.75-1.419l-7.629-2.269c-3.175-0.945-6.458-1.419-9.748-1.419c-1.984,0-3.972,0.173-5.939,0.519
		l-23.895,4.214l-5.785,22.212c-1.686,6.472-6.99,11.366-13.576,12.527l5.235-0.923c2.953-0.52,5.933-0.779,8.907-0.779
		c6.248,0,12.471,1.142,18.351,3.396L417.134,167c2.981,1.142,6.088,1.698,9.171,1.698c6.485,0,12.863-2.462,17.72-7.102
		l4.938-4.717c3.661-3.498,8.275-5.832,13.262-6.713l12.174-2.146l2.526,0.246L463.672,120.524z"/>
	<path style="fill:#00C3F0;" d="M473.539,373.719c-0.576,0.038-1.149,0.058-1.722,0.058c-8.635,0-16.834-4.329-21.67-11.721
		l-18.61-28.441c-5.071-7.75-8.516-16.45-10.124-25.571l-4.985-28.271c-2.194-12.443-13.015-21.197-25.226-21.197
		c-1.479,0-2.978,0.128-4.484,0.394l-0.63,0.111c-2.845,0.501-5.714,0.75-8.572,0.75c-7.714,0-15.363-1.808-22.316-5.33
		l-1.428-0.723c-13.863-7.024-23.61-20.165-26.308-35.469c-1.091-6.186-0.992-12.523,0.294-18.672l3.92-18.761
		c2.144-10.265,10.323-18.19,20.65-20.012l5.258-0.928l-5.518,0.973c-1.005,0.177-2.004,0.263-2.99,0.263
		c-8.141,0-15.356-5.837-16.818-14.131l-2.165-12.278c-1.048-5.949,1.152-11.839,5.489-15.704c1.038,0.095,2.054,0.277,3.114,0.277
		c1.978,0,3.968-0.173,5.913-0.513c9.04-1.599,16.877-6.594,22.112-14.075c5.244-7.493,7.249-16.577,5.65-25.582l-2.966-16.808
		c-0.361-2.056-0.904-4.04-1.603-5.94l4.971-7.102l5.498-8.995c-7.456-4.233-15.148-8.059-23.023-11.51l-3.941,6.447l-1.417,2.023
		c-4.34-1.98-9.092-3.183-14.129-3.183c-2.029,0-4.075,0.183-6.077,0.545c-8.896,1.573-16.732,6.569-21.969,14.049
		c-5.244,7.492-7.249,16.577-5.65,25.582l2.966,16.808c1.047,5.98,3.632,11.341,7.269,15.765
		c-6.569,9.133-9.519,20.717-7.465,32.367l2.166,12.281c0.734,4.163,2.051,8.095,3.858,11.716c-1.92,3.873-3.371,8.036-4.288,12.422
		l-3.92,18.757c-1.961,9.379-2.112,18.925-0.447,28.37c4.079,23.132,19.022,43.28,39.974,53.895l1.431,0.725
		c10.456,5.297,22.181,8.098,33.905,8.098c4.354,0,8.737-0.383,13.025-1.139l0.63-0.111l4.985,28.271
		c2.224,12.611,6.908,24.44,13.92,35.158l18.61,28.441c7.206,11.014,18.151,18.669,30.58,21.773
		c5.401-7.737,10.308-15.808,14.803-24.118L473.539,373.719z"/>
</g>
<g>
	<path style="fill:#B4FF87;" d="M500.131,212.929c-4.036-22.892-11.156-44.452-20.754-64.423l-4.979-0.485l-12.174,2.146
		c-4.986,0.879-9.6,3.215-13.261,6.713l-4.938,4.717c-7.166,6.847-17.636,8.95-26.891,5.404l-18.127-6.945
		c-8.68-3.327-18.102-4.231-27.258-2.616l-19.423,3.425c-10.327,1.821-18.506,9.747-20.65,20.012l-3.92,18.761
		c-1.286,6.149-1.385,12.486-0.294,18.672c2.698,15.305,12.445,28.446,26.308,35.469l1.428,0.723
		c9.53,4.828,20.369,6.435,30.888,4.58l0.63-0.111c13.95-2.46,27.251,6.855,29.711,20.804l4.985,28.271
		c1.608,9.122,5.053,17.821,10.124,25.571l18.61,28.441c5.157,7.882,14.137,12.282,23.393,11.664l0.53,0.035
		C499.74,326.295,510.227,270.192,500.131,212.929z"/>
	<path style="fill:#B4FF87;" d="M378.27,40.32l-5.498,8.995l-6.182,8.83c-1.64,2.341-2.283,5.239-1.787,8.055l3.155,17.886
		c1.08,6.122-0.317,12.424-3.883,17.517c-2.087,2.981-4.84,5.435-8.04,7.168l-16.262,7.496c-7.053,3.251-11.028,10.847-9.681,18.497
		l2.165,12.278c1.639,9.3,10.508,15.509,19.808,13.87l14.448-2.548c6.586-1.162,11.89-6.056,13.577-12.528l5.785-22.212
		l23.895-4.214c5.229-0.922,10.599-0.614,15.687,0.9l7.629,2.269c5.089,1.514,10.458,1.822,15.687,0.9l13.281-2.341l1.618-0.611
		C441.884,87.15,412.451,59.728,378.27,40.32z"/>
	<path style="fill:#B4FF87;" d="M297.776,303.855l-4.377-3.065c-5.573-3.901-12.466-5.43-19.164-4.249l-3.795,0.669
		c-4.467,0.788-9.061-0.232-12.775-2.832l-29.643-20.757c-9.287-6.503-20.775-9.05-31.941-7.081l-35.641,6.285h0.001l-5,33.718
		l3.743,21.23c1.179,6.682,5.434,12.42,11.487,15.487l28.846,14.615c6.053,3.067,10.308,8.804,11.488,15.487l4.99,28.302
		c1.988,11.277,6.221,22.039,12.448,31.648l16.965,26.178c2.233,3.448,6.285,5.263,10.344,4.636l0.067-0.011
		c5.779-0.892,9.694-6.36,8.679-12.118l-5.572-31.603l15.374-14.688c4.459-4.259,7.234-9.983,7.816-16.122l2.054-21.639
		c0.681-4.589,4.222-8.228,8.791-9.034l5.291-0.933c4.872-0.859,8.532-4.922,8.881-9.857l1.514-21.452
		C309.282,317.683,305.156,309.023,297.776,303.855z"/>
</g>
<path style="fill:#9BF57D;" d="M281.726,391.694c-49.841-14.33-94.071-44.028-126.182-84.575l3.641,20.655
	c1.179,6.682,5.434,12.42,11.487,15.487l28.846,14.615c6.053,3.067,10.308,8.804,11.488,15.487l4.99,28.302
	c1.988,11.277,6.221,22.039,12.448,31.648l16.965,26.178c2.233,3.448,6.285,5.263,10.344,4.636l0.067-0.011
	c5.779-0.892,9.694-6.36,8.679-12.118l-5.572-31.603l15.374-14.688C278.24,401.945,280.764,397.016,281.726,391.694z"/>
<path style="fill:#B4FF87;" d="M94.931,264.984l23.3,0.533l-1.41-11.042c-2.46-13.949,6.854-27.251,20.804-29.711l17.204-3.034
	l55.428-86.49c1.3-1.857,3.285-3.121,5.518-3.516l12.698-2.239c3.105-0.548,5.658-2.76,6.64-5.758l1.625-4.96
	c1.373-4.192-0.668-8.741-4.713-10.501L209.23,98.35c-5.787-2.518-5.824-10.712-0.062-13.282l25.606-11.421l-1.871-10.616
	L171.774,73.81l-39.578,21.698l-2.517-14.276l-10.211,1.801c-8.93,1.575-16.871,6.634-22.073,14.063l-4.459,6.368
	c-2.708,3.867-8.038,4.808-11.906,2.099l-10.005-7.006l-6.28-0.256c-22.608,27.445-39.262,59.622-48.467,94.406l23.128,42.71
	c4.419,8.16,13.562,12.577,22.699,10.965l5.93-1.045l6.885,9.284C79.633,260.979,87.019,264.802,94.931,264.984z"/>
<path style="fill:#9BF57D;" d="M94.931,264.984l23.3,0.533l-1.41-11.042c-0.83-4.709-0.225-9.305,1.354-13.475
	c-5.355-14.215-9.535-29.093-12.268-44.596c-6.746-38.255-4.155-75.941,5.857-110.934c-5.713,2.496-10.734,6.436-14.37,11.628
	l-4.459,6.368c-2.708,3.867-8.038,4.808-11.906,2.099l-10.005-7.006L64.94,98.31c-1.143,1.386-2.327,2.741-3.44,4.152
	c-1.119,1.417-2.244,2.828-3.329,4.269c-2.917,3.865-5.735,7.803-8.422,11.831c-0.716,1.073-1.405,2.16-2.104,3.244
	c-2.433,3.772-4.757,7.615-6.986,11.515c-1.025,1.796-2.005,3.617-2.985,5.439c-1.649,3.064-3.224,6.168-4.745,9.302
	c-0.901,1.858-1.829,3.701-2.685,5.582c-2.067,4.543-4.013,9.146-5.806,13.817c-0.746,1.946-1.392,3.935-2.09,5.901
	c-1.104,3.11-2.166,6.235-3.147,9.394c-0.731,2.351-1.427,4.715-2.086,7.092c-0.277,0.994-0.498,2.005-0.762,3.003l23.049,42.565
	c4.419,8.16,13.562,12.576,22.699,10.965l5.93-1.045l6.885,9.284C79.633,260.979,87.019,264.802,94.931,264.984z"/>
<path d="M508.045,211.558c-11.871-67.324-49.248-125.995-105.248-165.205S278.882-7.915,211.557,3.955
	C144.234,15.826,85.563,53.204,46.352,109.203S-7.915,233.119,3.955,300.443c11.871,67.324,49.248,125.995,105.248,165.205
	c43.514,30.468,94.218,46.351,146.254,46.351c14.931,0,29.975-1.309,44.985-3.955c67.324-11.87,125.995-49.248,165.205-105.248
	S519.915,278.881,508.045,211.558z M407.58,127.957l2.481,14.069c0.686,3.889,4.067,6.624,7.883,6.624
	c0.462,0,0.931-0.041,1.401-0.123c4.359-0.769,7.27-4.925,6.501-9.284l-1.944-11.022l6.918,2.058
	c6.249,1.858,12.944,2.243,19.363,1.11l9.879-1.742c2.353,3.801,4.605,7.665,6.74,11.597l-5.951,1.049
	c-6.567,1.157-12.585,4.205-17.407,8.81l-4.938,4.717c-4.901,4.682-12.159,6.14-18.488,3.716l-18.126-6.945
	c-4.651-1.781-9.486-2.954-14.389-3.522c0.125-0.395,0.253-0.79,0.358-1.194l4.488-17.234L407.58,127.957z M398.578,63.061
	l-6.33,5.795c-3.266,2.989-3.489,8.058-0.5,11.323c1.58,1.727,3.743,2.603,5.914,2.603c1.933,0,3.872-0.695,5.409-2.103l8.236-7.54
	c14.758,12.49,27.812,26.571,38.987,41.955l-2.892,0.511c-3.982,0.701-8.134,0.464-12.01-0.689l-7.627-2.269
	c-6.248-1.858-12.944-2.243-19.364-1.111l-23.896,4.214c-3.087,0.544-5.574,2.838-6.365,5.872l-5.785,22.212
	c-0.892,3.428-3.723,6.04-7.211,6.655l-14.187,2.502c-0.001,0-0.001,0-0.001,0l-0.26,0.046c-4.931,0.87-9.654-2.435-10.523-7.368
	l-2.165-12.278c-0.716-4.06,1.399-8.101,5.143-9.827l16.261-7.496c0.156-0.072,0.31-0.149,0.461-0.231
	c4.272-2.314,8.004-5.64,10.789-9.619c4.819-6.883,6.67-15.23,5.212-23.506l-3.155-17.885c-0.126-0.714,0.028-1.434,0.434-2.033
	l8.209-11.345c4.142,2.545,8.225,5.22,12.242,8.033C395.28,60.657,396.937,61.85,398.578,63.061z M59.482,118.397
	c2.854-4.077,5.831-8.035,8.902-11.898l8.069,5.65c3.625,2.538,8.021,3.514,12.378,2.744c4.357-0.768,8.154-3.188,10.691-6.811
	l4.459-6.369c4.01-5.729,10.013-9.552,16.9-10.766l2.316-0.408l2.61,14.802c0.686,3.889,4.067,6.624,7.883,6.624
	c0.462,0,0.931-0.04,1.401-0.123c4.359-0.768,7.27-4.925,6.501-9.284l-0.487-2.761l33.38-18.3l38.174-6.731l-6.738,3.006
	c-5.611,2.503-9.08,7.874-9.051,14.017c0.028,6.145,3.546,11.483,9.179,13.934l22.796,9.917c0.254,0.111,0.381,0.393,0.295,0.656
	l-1.625,4.96c-0.062,0.188-0.221,0.326-0.416,0.36l-12.698,2.239c-4.358,0.768-8.155,3.188-10.693,6.812
	c-0.063,0.089-0.123,0.18-0.182,0.271l-53.532,83.531l-13.743,2.424c-18.279,3.224-30.528,20.716-27.305,38.995l0.251,1.427
	l-14.065-0.322c-5.479-0.126-10.494-2.722-13.758-7.123l-6.886-9.284c-1.808-2.439-4.842-3.645-7.829-3.118l-5.929,1.045
	c-5.749,1.013-11.481-1.755-14.262-6.889l-21.682-40.042C32.01,165.737,43.637,141.027,59.482,118.397z M297.659,492.259
	c-14.075,2.481-28.169,3.708-42.169,3.707c-48.773-0.001-96.309-14.891-137.094-43.449c-52.492-36.755-87.529-91.751-98.655-154.859
	c-4.876-27.656-4.904-55.417-0.305-82.299l12.939,23.895c6.071,11.211,18.584,17.255,31.14,15.042l1.05-0.185l3.936,5.306
	c6.233,8.402,15.807,13.36,26.268,13.599l37.233,0.851c1.798,0.042,3.529,0.608,5.002,1.64l2.446,1.713
	c3.526,2.47,7.535,3.962,11.7,4.407l-3.61,23.73c-0.131,0.862-0.121,1.74,0.03,2.598l3.743,21.23
	c1.607,9.118,7.498,17.06,15.758,21.245l28.846,14.615c3.783,1.917,6.48,5.554,7.216,9.73l4.99,28.302
	c2.187,12.401,6.768,24.047,13.616,34.614l16.964,26.178c3.425,5.284,9.288,8.407,15.51,8.406c0.944,0,1.898-0.072,2.851-0.219
	c4.942-0.763,9.268-3.423,12.179-7.489c2.911-4.066,4.037-9.017,3.168-13.942l-4.828-27.379l12.273-11.725
	c5.851-5.589,9.494-13.104,10.259-21.161L292.143,369c0.222-1.112,1.103-1.978,2.229-2.177l5.292-0.933
	c8.508-1.5,14.875-8.567,15.483-17.185l1.514-21.453c0.827-11.727-4.641-23.201-14.27-29.944l-4.377-3.065
	c-7.365-5.157-16.296-7.138-25.153-5.576l-3.794,0.668c-2.386,0.423-4.8-0.112-6.788-1.505l-29.643-20.757
	c-11.107-7.776-24.578-10.762-37.928-8.409l-39.281,6.926c-2.387,0.422-4.799-0.113-6.787-1.505l-2.446-1.713
	c-4.075-2.853-8.857-4.422-13.83-4.535l-6.824-0.156l-0.808-4.584c-1.688-9.575,4.728-18.738,14.302-20.427l8.945-1.577l1.577,8.945
	c0.686,3.889,4.067,6.624,7.883,6.624c0.462,0,0.931-0.041,1.401-0.123c4.359-0.769,7.27-4.925,6.501-9.284l-2.355-13.36
	L216.88,139.8c0.079-0.088,0.187-0.147,0.305-0.168l12.698-2.24c6.029-1.062,10.958-5.337,12.864-11.154l1.625-4.962
	c2.676-8.17-1.25-16.916-9.133-20.345l-21.218-9.23l24.036-10.72c3.359-1.497,5.267-5.09,4.629-8.71l-1.871-10.616
	c-0.37-2.093-1.555-3.955-3.296-5.174c-1.742-1.219-3.896-1.697-5.989-1.327l-61.13,10.779c-0.862,0.152-1.694,0.443-2.461,0.866
	l-29.774,16.322l-0.576-3.265c-0.37-2.093-1.555-3.954-3.296-5.173c-1.741-1.219-3.897-1.697-5.989-1.328l-10.21,1.801
	c-11.104,1.958-20.78,8.123-27.247,17.357l-4.459,6.369c-0.032,0.045-0.127,0.181-0.345,0.22c-0.218,0.04-0.354-0.057-0.4-0.089
	l-6.84-4.79c35.524-39.07,82.681-65.169,135.534-74.489c14.075-2.481,28.169-3.707,42.169-3.707
	c38.638,0,76.497,9.355,110.841,27.438l-7.232,9.996c-0.025,0.034-0.048,0.067-0.073,0.103c-2.879,4.112-3.985,9.098-3.113,14.043
	l3.155,17.886c0.716,4.059-0.192,8.152-2.556,11.529c-1.322,1.888-3.078,3.476-5.089,4.606l-16.002,7.377
	c-10.35,4.771-16.196,15.943-14.218,27.166l2.165,12.278c1.024,5.803,3.988,10.774,8.09,14.405c-4.25,4.443-7.3,10.059-8.625,16.399
	l-3.92,18.759c-1.5,7.179-1.615,14.481-0.342,21.704c3.12,17.695,14.551,33.106,30.579,41.227l1.427,0.723
	c11.004,5.575,23.756,7.465,35.903,5.324l0.63-0.111c4.64-0.818,9.317,0.22,13.175,2.921c3.858,2.7,6.433,6.744,7.251,11.381
	l4.985,28.271c1.807,10.248,5.612,19.86,11.31,28.567l18.61,28.44c4.283,6.545,10.628,11.292,17.835,13.655
	c-2.77,4.567-5.687,9.068-8.78,13.484C415.762,446.095,360.766,481.131,297.659,492.259z M251.055,421.806l5.572,31.603
	c0.146,0.826-0.145,1.449-0.415,1.825c-0.269,0.376-0.765,0.853-1.662,0.991c-0.934,0.146-1.879-0.277-2.396-1.073l-16.964-26.178
	c-5.674-8.755-9.47-18.405-11.282-28.68l-4.99-28.302c-1.607-9.118-7.498-17.059-15.758-21.244l-28.846-14.616
	c-3.783-1.916-6.48-5.553-7.216-9.729l-3.516-19.934l4.07-26.752l29.84-5.262c9.136-1.611,18.352,0.433,25.951,5.753l29.643,20.757
	c5.496,3.848,12.158,5.325,18.765,4.16l3.795-0.669c4.637-0.818,9.317,0.22,13.175,2.921l4.377,3.065
	c5.044,3.533,7.909,9.543,7.475,15.685l-1.514,21.452c-0.089,1.268-1.026,2.307-2.277,2.528l-5.292,0.933
	c-7.979,1.406-14.139,7.737-15.327,15.751c-0.02,0.139-0.037,0.278-0.05,0.418l-2.054,21.639c-0.401,4.22-2.309,8.157-5.374,11.084
	l-15.375,14.688C251.474,416.471,250.59,419.168,251.055,421.806z M469.423,365.617c-5.073-0.694-9.685-3.552-12.549-7.93
	l-18.61-28.44c-4.502-6.881-7.509-14.476-8.938-22.574l-4.985-28.271c-1.561-8.855-6.478-16.571-13.843-21.728
	s-16.296-7.138-25.152-5.576l-0.63,0.111c-8.754,1.543-17.944,0.181-25.875-3.837l-1.427-0.722
	c-11.551-5.853-19.79-16.96-22.038-29.712c-0.918-5.205-0.835-10.468,0.246-15.641l3.92-18.761
	c1.483-7.098,7.055-12.497,14.195-13.758l19.425-3.425c7.724-1.362,15.675-0.598,23,2.208l18.126,6.944
	c12.083,4.63,25.937,1.847,35.295-7.092l4.938-4.717c2.525-2.413,5.679-4.008,9.117-4.615l10.618-1.872
	c8.335,18.313,14.417,37.799,18.003,58.134C501.475,266.608,493.359,319.25,469.423,365.617z"/>
<path d="M161.932,124.349c1.739,0,3.491-0.564,4.963-1.726l12.921-10.204c3.473-2.743,4.066-7.783,1.322-11.257
	c-2.743-3.473-7.783-4.065-11.257-1.322l-12.921,10.204c-3.473,2.743-4.066,7.784-1.322,11.257
	C157.218,123.304,159.563,124.349,161.932,124.349z"/>
<path d="M330.833,86.55c0.686,3.889,4.067,6.624,7.883,6.624c0.462,0,0.931-0.041,1.401-0.123c4.359-0.768,7.27-4.925,6.501-9.284
	l-2.969-16.838c-0.768-4.36-4.922-7.27-9.284-6.501c-4.359,0.768-7.27,4.925-6.501,9.284L330.833,86.55z"/>
</svg>