<?xml version="1.0" encoding="utf-8"?><!-- Uploaded to: SVG Repo, www.svgrepo.com, Generator: SVG Repo Mixer Tools -->
<svg width="800px" height="800px" viewBox="0 0 400 400" fill="none" xmlns="http://www.w3.org/2000/svg">
<path d="M201.677 81.9118C212.672 77.0696 207.224 79.5587 225.535 70.4195C235.615 65.3875 248.208 59.4395 259.831 62.7568C275.648 67.2721 299.695 97.4839 280.707 111.794C238.365 143.704 169.524 127.141 140.541 180.754C135.535 190.014 133.299 201.867 137.559 212.168C149.67 241.454 220.765 236.871 244.92 234.388C248.831 233.987 269.184 234.025 268.777 224.427C267.133 185.55 184.579 132.156 158.435 106.431C156.314 104.345 128.86 78.6603 139.05 68.887C143.571 64.5505 164.921 72.302 165.89 72.7177C199.384 87.0601 289.459 140.095 267.286 187.65C242.537 240.731 114.434 218.174 121.902 291.854C125.089 323.291 175.004 333.217 197.204 339.359C237.418 350.486 319.964 377.852 332.15 313.308C340.577 268.674 319.992 186.676 265.049 184.585C211.572 182.549 164.391 245.715 97.299 228.258C34.0506 211.803 27.869 115.201 60.0205 72.7177C98.1711 22.3077 151.136 57.9717 195.712 78.8478C226.556 93.2922 266.262 110.148 264.304 152.404C262.056 200.92 237.131 241.05 209.878 278.828C195.538 298.706 168.669 325.16 166.636 351.618C164.178 383.615 210.3 382 229.262 377.669C250.747 372.763 274.534 358.191 290.398 343.19C322.893 312.467 352.95 259.425 345.57 212.168C336.592 154.677 249.844 100.129 199.44 103.366C180.241 104.599 172.401 114.048 163.654 130.184C143.158 167.989 135.795 211.473 135.323 254.31C135.06 277.996 144.798 303.24 142.778 325.568C141.161 343.418 128.526 347.949 113.701 340.125C57.8845 310.669 82.4732 191.41 92.0792 143.209C94.4788 131.173 93.3548 112.43 104.754 108.729C116.957 104.769 138.892 145.935 139.05 146.274C160.078 191.347 156.242 320.154 80.1504 304.113C21.4269 291.733 72.2556 103.211 141.286 114.86C203.616 125.376 245.856 189.285 249.393 250.479C250.164 263.811 247.788 295.15 237.463 307.944C223.826 324.847 172.056 327.325 158.435 309.477C151.643 300.578 146.174 289.967 144.269 278.828C136.512 233.487 178.34 107.894 221.807 87.2751C280.215 59.5722 314.221 141.05 310.529 186.117C302.465 284.527 166.03 316.309 102.518 252.011C74.0105 223.151 70.363 144.672 83.878 107.964C91.0992 88.3502 104.969 78.8369 123.393 71.9509C135.785 67.3204 169.946 60.226 184.529 63.5236C245.77 77.3691 317.351 144.678 341.097 204.507C387.132 320.493 161.857 407.136 105.5 313.308C92.1816 291.136 92.7463 254.55 92.0792 230.557C91.7856 219.989 88.8149 187.27 98.0441 174.624C116.54 149.28 177.703 206.034 190.494 213.701C200.96 219.974 211.79 225.895 223.298 229.791C279.308 248.752 284.672 220.649 327.677 209.87C334.908 208.058 353.042 206.592 360.481 206.805C364.884 206.93 377.333 209.205 373.155 210.636C330.61 225.21 262.908 156.691 225.535 144.741C214.259 141.136 202.296 139.787 190.494 139.378C168.097 138.602 150.222 143.56 130.103 153.17C95.5537 169.673 86.6064 199.97 48.0918 186.117" stroke="#000000" stroke-opacity="0.9" stroke-width="16" stroke-linecap="round" stroke-linejoin="round"/>
</svg>