<?xml version="1.0" encoding="utf-8"?><!-- Uploaded to: SVG Repo, www.svgrepo.com, Generator: SVG Repo Mixer Tools -->
<svg width="800px" height="800px" viewBox="0 0 24 24" fill="none" xmlns="http://www.w3.org/2000/svg">
<path fill-rule="evenodd" clip-rule="evenodd" d="M4.68015 8.50289C5.28265 5.93436 7.28818 3.92883 9.85671 3.32634C11.7117 2.89122 13.6422 2.89122 15.4971 3.32634C18.0656 3.92883 20.0712 5.93436 20.6737 8.50289C21.1088 10.3578 21.1088 12.2883 20.6737 14.1433C20.0712 16.7118 18.0656 18.7174 15.4971 19.3198C13.6422 19.755 11.7117 19.755 9.85671 19.3198C9.2289 19.1726 8.63473 18.9415 8.08646 18.6389C7.99149 19.9587 6.89062 21 5.54655 21C4.14013 21 3 19.8599 3 18.4534C3 17.1094 4.04127 16.0085 5.36113 15.9135C5.0585 15.3653 4.82742 14.7711 4.68015 14.1433C4.24504 12.2883 4.24504 10.3578 4.68015 8.50289ZM8.50056 9.79518C8.50056 9.45764 8.77419 9.18401 9.11173 9.18401H12.1676C12.5051 9.18401 12.7788 9.45764 12.7788 9.79518C12.7788 10.1327 12.5051 10.4064 12.1676 10.4064H9.11173C8.77419 10.4064 8.50056 10.1327 8.50056 9.79518ZM10.1304 12.2399C9.79281 12.2399 9.51918 12.5135 9.51918 12.8511C9.51918 13.1886 9.79281 13.4622 10.1304 13.4622H15.2235C15.561 13.4622 15.8346 13.1886 15.8346 12.8511C15.8346 12.5135 15.561 12.2399 15.2235 12.2399H10.1304Z" fill="#363853"/>
</svg>